<svg xmlns="http://www.w3.org/2000/svg" viewBox="0 0 24 24">
  <path fill="#000000" d="M17.999 12.548c.213-.018.388-.178.449-.392l.545-1.977c.17-.625-.192-1.269-.818-1.439l-1.333-.36c-.625-.17-1.27.193-1.44.818l-.673 2.438-4.414-2.69c-.645-.39-1.48-.048-1.528.69l-.29 3.96c-.048.737.664 1.186 1.31.796l2.856-1.74-.84 3.052c-.17.625.193 1.27.818 1.44l3.068.828c.636.17 1.27-.193 1.44-.818l.635-2.308 1.978.533c.569.154 1.172-.164 1.327-.732l.62-2.24c.154-.569-.164-1.172-.732-1.327l-.01-.003zm-1.805 1.345l-1.21-.326-.986 3.586c-.11.4-.25.784-.417 1.15l-1.117-3.085-1.36.83 3.056-10.214 1.977.534-1.053 3.819 1.212-.741.327 1.21-1.212.74-1.014-.324zm-7.12.99l.82-2.966-1.978-.534c-.625-.17-1.27.193-1.439.818l-.533 1.931-.914-.248-.536 1.937c-.169.625.193 1.27.818 1.44l2.977.805 1.77-6.014zm-1.939 1.45l-.516 1.872-1.365-.369 1.382-5.015 4.368 1.183-2.853 1.738 1.074-.019-1.382 5.015-1.98-.534zm12.007-1.8l.82-2.966-1.977-.534c-.625-.17-1.27.193-1.439.818l-.533 1.931-.914-.248-.536 1.937c-.169.625.193 1.27.818 1.44l2.978.805 1.768-6.014zm-1.94 1.45l-.516 1.872-1.366-.369 1.383-5.015 4.367 1.183-2.854 1.738 1.072-.019-1.382 5.015-1.972-.534z"/>
</svg>
