<svg width="24" height="24" viewBox="0 0 24 24" fill="none" xmlns="http://www.w3.org/2000/svg">
<path d="M7.49003 15.532C7.39203 14.462 7.31003 12.112 7.28003 11.076C7.33903 10.838 7.67003 10.667 7.82003 10.609C10.058 10.594 14.733 10.56 15.57 10.56C16.402 10.56 16.689 11.032 16.728 11.275C16.669 11.635 16.553 12.822 16.553 14.7C16.553 17.045 14.305 21 12.033 21C9.76103 21 7.61703 16.87 7.49003 15.532Z" fill="url(#paint0_linear_64_100)"/>
<path d="M10.214 11.84C9.44734 11.8 8.685 11.7186 7.927 11.596C8.346 11.834 9.776 12.301 12.16 12.301C15.142 12.301 16.368 11.727 16.368 11.377C16.368 11.09 16.09 10.925 15.949 10.871L15.565 10.954C15.595 10.996 15.61 11.048 15.609 11.1C15.209 11.912 13.303 12.024 12.155 12.024C11.245 12.024 10.481 11.902 10.209 11.839L10.214 11.84Z" fill="url(#paint1_linear_64_100)"/>
<path d="M12.1419 11.888C9.67995 11.888 9.13495 11.294 9.16895 10.992H15.1039V11.104C15.1439 11.362 14.6039 11.888 12.1419 11.888Z" fill="#26203A"/>
<path d="M12.14 11.582C10.525 11.582 10.165 11.192 10.194 10.998H14.081V11.066C14.106 11.236 13.751 11.582 12.136 11.582H12.14Z" fill="#4470D1"/>
<path d="M7.29505 11.173C7.29505 11.003 7.55205 10.779 7.68405 10.687L8.06405 10.833L7.90305 11.582C7.70238 11.5372 7.50546 11.4771 7.31405 11.402C7.29687 11.3287 7.29014 11.2532 7.29405 11.178L7.29505 11.173Z" fill="#335CA7"/>
<path d="M7.67993 11.237C7.67993 11.421 7.86893 11.567 7.96093 11.616C8.44793 11.699 9.58593 11.864 10.2479 11.854C8.98293 11.674 8.64193 11.164 8.63793 10.93L8.00993 10.833C7.90293 10.886 7.67993 11.052 7.67993 11.236" fill="#496BAC"/>
<path d="M9.227 11.046L8.604 10.929C8.619 11.294 9.188 11.995 11.314 11.869C9.723 11.795 9.261 11.289 9.222 11.041L9.227 11.046Z" fill="#9EA3B6"/>
<path d="M11.232 11.868H10.395C13.693 12.349 15.887 11.566 15.562 10.943L15.002 11.041C15.007 11.819 12.492 11.916 11.232 11.868Z" fill="url(#paint2_linear_64_100)"/>
<path d="M14.6459 11.09H9.60093C9.07093 11.09 7.80093 10.934 6.97393 10.322C5.92793 9.548 6.25393 7.534 6.37093 7.101C6.48793 6.673 7.56793 3 11.9849 3C16.4069 3 17.7749 6.99 17.8229 7.592V7.612C17.9172 8.37643 17.7887 9.15181 17.4529 9.845C17.0829 10.672 15.4529 11.027 14.6459 11.09Z" fill="url(#paint3_linear_64_100)"/>
<path d="M13.746 4.98999H10.394C9.55695 4.98999 7.67395 5.18499 7.67395 6.99999C7.67395 8.81499 9.21195 10.648 11.931 10.648C14.651 10.648 16.232 9.02799 16.232 6.99899C16.232 5.37399 14.578 4.97999 13.746 4.98999Z" fill="#FFFFBA"/>
<path d="M13.6869 5.083H10.4419C9.62994 5.083 7.80994 5.268 7.80994 7.029C7.80994 8.78 9.29894 10.551 11.9259 10.551C14.5579 10.551 16.0899 8.994 16.0899 7.024C16.0899 5.452 14.4849 5.078 13.6819 5.078L13.6869 5.083Z" fill="url(#paint4_linear_64_100)"/>
<path d="M6.67794 6.474C6.57594 6.488 6.40494 6.994 6.33194 7.242C6.25592 7.66916 6.21711 8.10212 6.21594 8.536C6.22594 8.974 6.29794 9.11 6.33194 9.12C6.52694 9.12 6.67794 8.536 6.72194 8.108C6.76994 7.685 6.80894 6.454 6.67794 6.474Z" fill="#C9D3E8"/>
<path d="M6.69204 6.697C6.59904 6.711 6.44904 7.135 6.38504 7.339C6.35104 7.543 6.27804 8.049 6.28804 8.409C6.29804 8.769 6.35604 8.886 6.38504 8.896C6.56004 8.896 6.69204 8.409 6.72504 8.054C6.77004 7.704 6.80404 6.682 6.69204 6.697Z" fill="#251F38"/>
<path d="M5.18799 6.38599C5.18799 8.19999 5.74799 8.76899 6.02999 8.82299C6.58999 8.82299 6.47299 7.86399 6.39999 6.04999C6.32699 4.23599 6.09299 3.24799 5.93799 3.24799C5.78299 3.24799 5.19299 4.11799 5.19299 6.38599H5.18799Z" fill="url(#paint5_linear_64_100)"/>
<path d="M6.158 4.72803C5.662 4.81003 5.307 4.72803 5.268 4.72803C5.209 4.74203 5.234 4.80603 5.248 4.84003C5.297 4.85403 5.433 4.87903 5.662 4.87903C5.949 4.87903 6.129 4.85903 6.158 4.83903C6.178 4.82003 6.168 4.75703 6.158 4.72803Z" fill="#FFFFBA"/>
<path d="M5.44602 8.12797C5.50902 7.95297 5.57202 7.70497 5.57202 7.39797C5.57202 6.96497 5.34402 6.65797 5.19202 6.52197C5.20202 7.25197 5.31002 7.77197 5.44602 8.12797Z" fill="url(#paint6_linear_64_100)"/>
<path d="M17.321 6.474C17.428 6.488 17.598 6.994 17.671 7.242C17.72 7.495 17.798 8.103 17.788 8.536C17.773 8.974 17.705 9.11 17.671 9.12C17.477 9.12 17.321 8.536 17.282 8.108C17.233 7.685 17.195 6.454 17.321 6.474Z" fill="#C9D3E8"/>
<path d="M17.312 6.697C17.404 6.711 17.555 7.135 17.613 7.339C17.653 7.543 17.725 8.049 17.711 8.409C17.706 8.769 17.643 8.886 17.613 8.896C17.443 8.896 17.312 8.409 17.273 8.054C17.234 7.704 17.2 6.682 17.312 6.697Z" fill="#251F38"/>
<path d="M18.81 6.38599C18.81 8.19999 18.25 8.76899 17.973 8.82299C17.413 8.82299 17.525 7.86399 17.603 6.04999C17.676 4.23499 17.909 3.24799 18.065 3.24799C18.221 3.24799 18.81 4.11799 18.81 6.38599Z" fill="url(#paint7_linear_64_100)"/>
<path d="M17.847 4.72803C18.343 4.81003 18.698 4.72803 18.737 4.72803C18.796 4.74203 18.771 4.80603 18.752 4.84003C18.6173 4.87069 18.481 4.88369 18.343 4.87903C18.056 4.87903 17.876 4.85903 17.847 4.83903C17.823 4.82003 17.837 4.75703 17.847 4.72803Z" fill="#FFFFBA"/>
<path d="M18.553 8.12797C18.4695 7.89378 18.4282 7.64661 18.431 7.39797C18.431 6.96497 18.66 6.65797 18.811 6.52197C18.819 7.06823 18.7317 7.6117 18.553 8.12797Z" fill="url(#paint8_linear_64_100)"/>
<path d="M13.595 5.18499H10.525C9.75703 5.18499 8.03003 5.36499 8.03003 7.05299C8.03003 8.74599 9.44003 10.448 11.936 10.448C14.426 10.448 15.882 8.94499 15.882 7.05299C15.882 5.54499 14.359 5.17999 13.595 5.18499Z" fill="url(#paint9_linear_64_100)"/>
<path d="M15.4979 8.63C14.4226 9.10157 13.2567 9.33066 12.0829 9.301C10.4769 9.301 9.29495 9.044 8.56995 8.82C9.19795 9.759 10.3459 10.45 11.9369 10.45C13.6779 10.45 14.9089 9.72 15.4969 8.63" fill="#483D6F"/>
<path d="M9.55801 6.61401H8.73101C8.78059 6.37451 8.91222 6.15983 9.10319 6.00702C9.29415 5.85421 9.53247 5.77286 9.77701 5.77701L9.55801 6.61401ZM10.774 5.78201H9.86401L9.67401 6.60001H10.774V5.78201ZM8.70201 6.70701H9.53901L9.46101 7.04701H8.61401L8.70201 6.70701Z" fill="url(#paint10_linear_64_100)"/>
<path d="M10.347 8.47203C10.93 8.47203 11.402 7.97503 11.402 7.36203C11.402 6.75003 10.93 6.25403 10.347 6.25403C9.76404 6.25403 9.29004 6.75003 9.29004 7.36303C9.29004 7.97503 9.76304 8.47203 10.346 8.47203" fill="url(#paint11_linear_64_100)"/>
<path d="M13.863 8.47203C14.446 8.47203 14.919 7.97503 14.919 7.36203C14.919 6.75003 14.446 6.25403 13.863 6.25403C13.28 6.25403 12.808 6.75003 12.808 7.36303C12.808 7.97503 13.28 8.47203 13.863 8.47203Z" fill="url(#paint12_linear_64_100)"/>
<path d="M8.891 5.35001C8.648 5.05901 8.356 4.51401 8.229 4.24101L8.409 4.10101C8.429 4.28501 8.819 4.96601 9.018 5.28201C8.988 5.30701 8.925 5.35001 8.891 5.35001ZM15.006 5.33201C15.3011 5.01838 15.5576 4.67057 15.77 4.29601L15.575 4.15001C15.541 4.33001 15.113 4.95301 14.875 5.25401C14.9133 5.28817 14.9577 5.31465 15.006 5.33201Z" fill="#FFFFBA"/>
<path d="M7.281 11.68V11.792C7.233 12.356 7.125 13.514 7.125 13.606C7.125 13.698 7.345 14.297 7.456 14.589C7.524 14.399 7.661 13.844 7.661 13.149C7.661 12.453 7.408 11.884 7.281 11.679" fill="#28233E"/>
<path d="M5.25696 16.038C5.25696 18.067 5.90896 18.704 6.22996 18.772C7.15896 18.772 7.49496 16.49 7.54296 15.352C7.65496 14.131 7.70896 11.694 7.04696 11.694C6.21996 11.694 5.25696 13.508 5.25696 16.038Z" fill="url(#paint13_linear_64_100)"/>
<path d="M5.44104 16.413C5.44104 17.123 5.63604 17.308 5.73804 17.313C5.98104 17.313 5.97704 16.68 5.94204 16.364C5.94704 15.897 5.91304 14.964 5.73804 14.964C5.52404 14.964 5.44104 15.527 5.44104 16.413Z" fill="#829FD1"/>
<path d="M6.33699 16.635C5.69399 16.635 5.34399 16.684 5.21699 16.708L5.18799 16.562C5.32499 16.538 5.68499 16.489 6.33699 16.489C6.90099 16.489 7.21199 16.567 7.39699 16.611L7.48499 16.635L7.44499 16.781L7.35799 16.757C7.02499 16.669 6.68134 16.628 6.33699 16.635Z" fill="#FFFFBA"/>
<path d="M18.635 16.038C18.635 18.067 17.988 18.704 17.662 18.772C16.738 18.772 16.397 16.49 16.348 15.352C16.241 14.131 16.188 11.694 16.849 11.694C17.677 11.694 18.635 13.508 18.635 16.038Z" fill="url(#paint14_linear_64_100)"/>
<path d="M18.456 16.413C18.456 17.123 18.256 17.308 18.154 17.313C17.916 17.313 17.921 16.68 17.95 16.364C17.95 15.897 17.984 14.964 18.154 14.964C18.374 14.964 18.456 15.527 18.456 16.413Z" fill="#829FD1"/>
<path d="M17.554 16.635C18.202 16.635 18.552 16.684 18.674 16.708L18.707 16.562C18.571 16.538 18.207 16.489 17.554 16.489C16.99 16.489 16.684 16.567 16.494 16.611L16.411 16.635L16.445 16.781L16.533 16.757C16.727 16.708 17.009 16.635 17.554 16.635Z" fill="#FFFFBA"/>
<path d="M10.277 13.445L9.60999 15.09H9.99999L10.661 13.52C10.6694 13.5038 10.682 13.4903 10.6975 13.4808C10.713 13.4712 10.7308 13.4661 10.749 13.466C10.7669 13.4662 10.7844 13.4713 10.7997 13.4806C10.815 13.4899 10.8276 13.5032 10.836 13.519L11.459 15.09H11.858L11.211 13.451C11.1732 13.3584 11.1085 13.2793 11.0252 13.2238C10.942 13.1684 10.844 13.1392 10.744 13.14C10.6445 13.1388 10.547 13.1672 10.4638 13.2217C10.3806 13.2762 10.3156 13.3543 10.277 13.446M12.121 13.14H12.52V15.09H12.12V13.14M12.927 15.1V14.735H14.095C14.231 14.735 14.343 14.628 14.343 14.502C14.3401 14.4397 14.3132 14.381 14.2678 14.3383C14.2225 14.2956 14.1623 14.2721 14.1 14.273H13.467C13.146 14.273 12.883 14.025 12.883 13.719C12.883 13.413 13.146 13.164 13.467 13.164H14.533V13.509H13.487C13.355 13.509 13.243 13.612 13.243 13.739C13.243 13.859 13.355 13.962 13.487 13.962H14.085C14.421 13.962 14.688 14.22 14.688 14.532C14.686 14.609 14.6689 14.6848 14.6375 14.7552C14.606 14.8255 14.561 14.8889 14.5049 14.9417C14.4488 14.9945 14.3829 15.0357 14.3108 15.0629C14.2387 15.09 14.162 15.1027 14.085 15.1H12.927Z" fill="url(#paint15_linear_64_100)"/>
<defs>
<linearGradient id="paint0_linear_64_100" x1="16.728" y1="11.864" x2="8.63803" y2="18.144" gradientUnits="userSpaceOnUse">
<stop stop-color="#89B9ED"/>
<stop offset="0.89" stop-color="#1B5CCF"/>
<stop offset="1" stop-color="#6095D0"/>
</linearGradient>
<linearGradient id="paint1_linear_64_100" x1="9.202" y1="11.98" x2="15.959" y2="11.98" gradientUnits="userSpaceOnUse">
<stop stop-color="#6192E0"/>
<stop offset="1" stop-color="#97C1EF"/>
</linearGradient>
<linearGradient id="paint2_linear_64_100" x1="10.867" y1="12.082" x2="15.425" y2="11.615" gradientUnits="userSpaceOnUse">
<stop stop-color="#B9C5DE"/>
<stop offset="1" stop-color="#667AB0"/>
</linearGradient>
<linearGradient id="paint3_linear_64_100" x1="12.0379" y1="3" x2="12.0379" y2="11.09" gradientUnits="userSpaceOnUse">
<stop stop-color="#72CDFF"/>
<stop offset="0.84" stop-color="#3856DC"/>
<stop offset="0.98" stop-color="#4A6DD8"/>
</linearGradient>
<linearGradient id="paint4_linear_64_100" x1="11.9549" y1="5.078" x2="11.9549" y2="10.551" gradientUnits="userSpaceOnUse">
<stop stop-color="#8091BF"/>
<stop offset="1" stop-color="#D2DBED"/>
</linearGradient>
<linearGradient id="paint5_linear_64_100" x1="5.82599" y1="3.24799" x2="5.82599" y2="8.82299" gradientUnits="userSpaceOnUse">
<stop stop-color="#72CDFF"/>
<stop offset="1" stop-color="#252B8C"/>
</linearGradient>
<linearGradient id="paint6_linear_64_100" x1="5.38302" y1="6.52197" x2="5.38302" y2="8.12797" gradientUnits="userSpaceOnUse">
<stop stop-color="#32469F"/>
<stop offset="1" stop-color="#5EA3E0"/>
</linearGradient>
<linearGradient id="paint7_linear_64_100" x1="18.172" y1="3.24799" x2="18.172" y2="8.82299" gradientUnits="userSpaceOnUse">
<stop stop-color="#72CDFF"/>
<stop offset="1" stop-color="#252B8C"/>
</linearGradient>
<linearGradient id="paint8_linear_64_100" x1="18.621" y1="6.52197" x2="18.621" y2="8.12797" gradientUnits="userSpaceOnUse">
<stop stop-color="#32469F"/>
<stop offset="1" stop-color="#5EA3E0"/>
</linearGradient>
<linearGradient id="paint9_linear_64_100" x1="8.03003" y1="6.89199" x2="15.741" y2="6.89199" gradientUnits="userSpaceOnUse">
<stop stop-color="#27213B"/>
<stop offset="0.61" stop-color="#4A3F73"/>
<stop offset="1" stop-color="#28223C"/>
</linearGradient>
<linearGradient id="paint10_linear_64_100" x1="9.69401" y1="5.77701" x2="9.54301" y2="7.32901" gradientUnits="userSpaceOnUse">
<stop stop-color="#9490A1"/>
<stop offset="1" stop-color="#9490A1" stop-opacity="0"/>
</linearGradient>
<linearGradient id="paint11_linear_64_100" x1="10.347" y1="6.25403" x2="10.347" y2="8.47203" gradientUnits="userSpaceOnUse">
<stop stop-color="#FFF962"/>
<stop offset="1" stop-color="#FCBE43"/>
</linearGradient>
<linearGradient id="paint12_linear_64_100" x1="13.863" y1="6.25403" x2="13.863" y2="8.47203" gradientUnits="userSpaceOnUse">
<stop stop-color="#FFF962"/>
<stop offset="1" stop-color="#FCBE43"/>
</linearGradient>
<linearGradient id="paint13_linear_64_100" x1="6.43396" y1="11.694" x2="6.43396" y2="18.772" gradientUnits="userSpaceOnUse">
<stop stop-color="#87B7FD"/>
<stop offset="1" stop-color="#325CA9"/>
</linearGradient>
<linearGradient id="paint14_linear_64_100" x1="17.458" y1="11.694" x2="17.458" y2="18.772" gradientUnits="userSpaceOnUse">
<stop stop-color="#87B7FD"/>
<stop offset="1" stop-color="#325CA9"/>
</linearGradient>
<linearGradient id="paint15_linear_64_100" x1="9.91699" y1="14.783" x2="14.315" y2="14.783" gradientUnits="userSpaceOnUse">
<stop stop-color="#C6AD40"/>
<stop offset="1" stop-color="#FFE45B"/>
</linearGradient>
</defs>
</svg>
